<svg xmlns="http://www.w3.org/2000/svg" viewBox="0 0 1440 900" width="1440" height="900">
    
      <rect x="0" y="0" width="1440" height="900" fill="#0A0A0A" />
      <!-- Browser Frame -->
      <rect x="40" y="40" width="1360" height="820" rx="16" fill="#121212" stroke="#222222" stroke-width="1.5"/>
      
      <!-- Window Controls -->
      <circle cx="65" cy="65" r="5" fill="#222222" />
      <circle cx="85" cy="65" r="5" fill="#222222" />
      <circle cx="105" cy="65" r="5" fill="#222222" />
      
      <line x1="40" y1="90" x2="1400" y2="90" stroke="#222222" stroke-width="1.5"/>
      
      <!-- Sidebar -->
      <rect x="40" y="90" width="200" height="770" fill="#0A0A0A" opacity="0.2"/>
      <rect x="60" y="120" width="160" height="24" rx="4" fill="#222222" opacity="0.5"/>
      <rect x="60" y="160" width="120" height="16" rx="4" fill="#222222" opacity="0.3"/>
      <rect x="60" y="192" width="140" height="16" rx="4" fill="#222222" opacity="0.3"/>
      <rect x="60" y="224" width="130" height="16" rx="4" fill="#222222" opacity="0.3"/>
      <rect x="60" y="256" width="150" height="16" rx="4" fill="#222222" opacity="0.3"/>
      
      <!-- Main Content Header -->
      <rect x="280" y="120" width="1080" height="48" rx="8" fill="#222222" opacity="0.2"/>
      
      <!-- Data Cards -->
      <rect x="280" y="200" width="346.6666666666667" height="140" rx="12" fill="#222222" opacity="0.3"/>
      <rect x="646.6666666666667" y="200" width="346.6666666666667" height="140" rx="12" fill="#222222" opacity="0.3"/>
      <rect x="1013.3333333333334" y="200" width="346.6666666666667" height="140" rx="12" fill="#222222" opacity="0.3"/>
      
      <!-- Main Chart/Table -->
      <rect x="280" y="370" width="1080" height="280" rx="12" fill="#222222" opacity="0.2"/>
      
      <!-- Title Overlay -->
      <text x="820" y="430" font-family="system-ui, -apple-system, sans-serif" font-size="42" font-weight="700" fill="#FFFFFF" text-anchor="middle" opacity="0.9" letter-spacing="-1">MPP Digital</text>
      <text x="820" y="470" font-family="system-ui, -apple-system, sans-serif" font-size="18" fill="#888888" text-anchor="middle" opacity="0.7">Enterprise Dashboard</text>
    
  </svg>